<?xml version="1.0" standalone="no"?>
<!DOCTYPE svg PUBLIC "-//W3C//DTD SVG 20010904//EN"
 "http://www.w3.org/TR/2001/REC-SVG-20010904/DTD/svg10.dtd">
<svg version="1.0" xmlns="http://www.w3.org/2000/svg"
 width="392.000000pt" height="392.000000pt" viewBox="0 0 392.000000 392.000000"
 preserveAspectRatio="xMidYMid meet">
<metadata>
Created by potrace 1.14, written by Peter Selinger 2001-2017
</metadata>
<g transform="translate(0.000000,392.000000) scale(0.100000,-0.100000)"
fill="#000000" stroke="none">
<path d="M1695 3854 c-334 -50 -631 -174 -900 -378 -163 -123 -379 -365 -478
-536 -189 -324 -276 -665 -264 -1035 3 -93 8 -179 10 -191 3 -12 8 -45 12 -75
4 -30 9 -57 11 -60 2 -3 6 -21 9 -40 10 -61 75 -258 115 -350 44 -98 128 -252
141 -257 5 -2 9 -9 9 -14 0 -24 150 -209 249 -309 159 -158 302 -261 499 -359
188 -92 316 -135 532 -175 80 -15 166 -20 340 -20 235 1 368 21 571 88 115 38
299 119 364 160 11 6 44 27 74 45 30 19 61 40 68 48 8 8 17 14 21 14 4 0 20
11 36 25 16 14 32 25 37 25 16 0 269 260 325 335 182 242 307 519 360 798 48
253 45 526 -7 767 -19 87 -73 271 -88 295 -3 6 -6 15 -7 20 -4 20 -87 191
-102 208 -8 9 -12 17 -8 17 8 0 -53 93 -138 210 -70 96 -247 281 -321 336 -22
16 -45 34 -52 40 -72 68 -354 220 -508 274 -96 33 -264 77 -330 85 -22 3 -65
9 -95 14 -82 14 -382 10 -485 -5z"/>
</g>
</svg>
