<?xml version="1.0" standalone="no"?>
<!DOCTYPE svg PUBLIC "-//W3C//DTD SVG 20010904//EN"
 "http://www.w3.org/TR/2001/REC-SVG-20010904/DTD/svg10.dtd">
<svg version="1.0" xmlns="http://www.w3.org/2000/svg"
 width="392.000000pt" height="392.000000pt" viewBox="0 0 392.000000 392.000000"
 preserveAspectRatio="xMidYMid meet">
<metadata>
Created by potrace 1.14, written by Peter Selinger 2001-2017
</metadata>
<g transform="translate(0.000000,392.000000) scale(0.100000,-0.100000)"
fill="#000000" stroke="none">
<path d="M1810 3913 c-59 -7 -186 -28 -230 -38 -14 -3 -38 -8 -55 -11 -37 -6
-227 -69 -275 -91 -77 -34 -270 -133 -280 -143 -3 -3 -39 -27 -80 -55 -41 -27
-84 -59 -96 -70 -12 -11 -39 -33 -59 -50 -94 -74 -251 -247 -338 -372 -145
-208 -277 -524 -313 -748 -3 -22 -7 -42 -9 -46 -2 -3 -7 -39 -12 -80 -13 -129
-8 -326 14 -469 3 -25 7 -54 9 -65 1 -16 27 -137 38 -180 45 -177 155 -423
259 -575 17 -25 34 -46 39 -48 4 -2 8 -10 8 -18 0 -8 4 -14 8 -14 4 0 15 -12
24 -27 39 -65 237 -267 327 -333 19 -14 40 -31 47 -37 7 -7 17 -13 22 -13 6 0
12 -4 14 -9 5 -13 135 -94 232 -144 128 -68 310 -136 431 -163 53 -11 85 -16
89 -13 2 2 12 -3 22 -13 26 -22 134 -33 334 -33 169 0 248 7 310 25 19 6 51
13 70 16 113 18 405 114 422 138 4 6 8 8 8 4 0 -8 161 74 202 103 14 11 29 19
32 19 4 0 12 4 19 10 7 5 50 38 97 72 118 88 227 188 307 284 18 22 39 46 47
54 7 8 39 51 70 95 31 44 59 85 64 90 17 24 125 231 128 245 0 3 6 19 13 35
43 101 93 259 106 334 3 19 7 37 9 40 4 7 14 76 26 181 9 77 7 411 -3 426 -3
5 -8 32 -11 59 -3 28 -8 61 -12 75 -3 14 -8 39 -11 55 -2 17 -7 37 -10 45 -3
8 -7 22 -9 30 -6 32 -38 128 -66 200 -30 77 -135 291 -147 300 -3 3 -22 31
-41 63 -19 31 -38 57 -42 57 -4 0 -8 5 -8 11 0 14 -116 153 -187 224 -67 68
-226 205 -237 205 -4 0 -16 8 -27 18 -10 11 -32 25 -47 33 -15 8 -29 17 -32
20 -3 3 -33 22 -67 42 -157 91 -377 176 -550 212 -79 17 -97 20 -213 34 -61 8
-325 11 -380 4z"/>
</g>
</svg>
